<svg width="69" height="102" viewBox="0 0 69 102" fill="none" xmlns="http://www.w3.org/2000/svg">
<g clip-path="url(#clip0_889_302)">
<path opacity="0.6" d="M4.38397 70.7678V84.3613L16.1572 91.1609L27.9305 84.3613V70.7678L16.1572 63.971L4.38397 70.7678Z" fill="#A7D8D8"/>
<path opacity="0.6" d="M16.858 26.3752V39.9687L28.6313 46.7654L40.4045 39.9687V26.3752L28.6313 19.5784L16.858 26.3752Z" fill="#71A8B5"/>
<path opacity="0.6" d="M27.9761 38.5102V52.1037L39.7493 58.9005L51.5226 52.1037V38.5102L39.7493 31.7135L27.9761 38.5102Z" fill="#C5DFD9"/>
<path opacity="0.6" d="M16.2085 58.9005V72.494L27.9818 79.2908L39.755 72.494V58.9005L27.9818 52.1037L16.2085 58.9005Z" fill="#71A8B5"/>
<path opacity="0.6" d="M39.7494 45.3041V58.8976L51.5227 65.6944L63.2959 58.8976V45.3041L51.5227 38.5074L39.7494 45.3041Z" fill="#71A8B5"/>
<path opacity="0.6" d="M4.4353 38.5102V52.1037L16.2086 58.9005L27.9818 52.1037V38.5102L16.2086 31.7106L4.4353 38.5102Z" fill="#A7D8D8"/>
<path opacity="0.6" d="M34.431 61.977V75.5705L46.2043 82.3672L57.9775 75.5705V61.977L46.2043 55.1802L34.431 61.977Z" fill="#C5DFD9"/>
<path opacity="0.6" d="M34.8412 9.88179L34.8384 28.8762L51.5226 38.5102L68.2069 29.144V9.88179L51.5255 0.247826L34.8412 9.88179Z" fill="#A7D8D8"/>
<path opacity="0.6" d="M12.4797 74.4652V92.5339L28.1271 101.57L43.7773 92.5339V74.4652L28.1271 65.4295L12.4797 74.4652Z" fill="#CAE6E6"/>
<path opacity="0.6" d="M0.894409 81.205V94.7985L12.6677 101.595L24.4409 94.7985V81.205L12.6677 74.4082L0.894409 81.205Z" fill="#71A8B5"/>
</g>
<defs>
<clipPath id="clip0_889_302">
<rect width="68.9048" height="101.877" fill="white"/>
</clipPath>
</defs>
</svg>
